<?xml version="1.0" encoding="UTF-8"?>
<svg id="Camada_1" data-name="Camada 1" xmlns="http://www.w3.org/2000/svg" version="1.1" viewBox="0 0 1920 1080">
  <defs>
    <style>
      .cls-1 {
        fill: #4f1528;
      }

      .cls-1, .cls-2, .cls-3 {
        stroke-width: 0px;
      }

      .cls-2 {
        fill: #4f1528;
      }

      .cls-3 {
        fill: #ed0c6e;
      }
    </style>
  </defs>
  <path class="cls-2" d="M1632.7,523.9h-10.5l-15.1,32.2h8.8l2.7-5.9h16.6l2.4,5.9h9.3l-14.2-32.2ZM1621.2,543.9l5.9-12.9,5.4,12.9h-11.2Z"/>
  <path class="cls-2" d="M1751.1,557.1c9.8,0,17.1-2.9,17.1-10.7s-4.6-8.8-11.5-9.8l-6.8-1c-3.9-.5-6.1-1.2-6.1-3.2s2.2-3.2,6.6-3.2,8.3,1,8.5,4.2h8.5c0-6.6-5.6-10.5-16.4-10.5s-15.9,2.9-15.9,10.3,5.1,8.8,10.3,9.5l8.3,1.2c4.4.7,5.9,1.2,5.9,3.2s-2.7,3.7-8.1,3.7-8.1-1-8.1-4.6h-9c0,6.1,3.4,11,16.6,11"/>
  <polygon class="cls-2" points="1651.7 556.1 1659.5 556.1 1659.5 534.6 1675.4 556.1 1685.2 556.1 1685.2 523.9 1677.3 523.9 1677.3 545.6 1661.5 523.9 1651.7 523.9 1651.7 556.1"/>
  <g>
    <path class="cls-1" d="M1710.5,522.9c-12.4,0-18.8,7.8-18.8,17.1s5.4,17.1,18.8,17.1,18.8-7.8,18.8-17.1-5.4-17.1-18.8-17.1ZM1710.5,550.5c-6.8,0-9.8-4.9-9.8-10.5s3.2-10.5,9.8-10.5,9.8,4.9,9.8,10.5-3.2,10.5-9.8,10.5Z"/>
    <path class="cls-1" d="M1725.7,442.4h-74.2c-57.6,0-99.4,42-99.4,97.6s41.7,97.6,99.4,97.6h74.2c57.6,0,99.4-41.7,99.4-97.6s-41.7-97.6-99.4-97.6ZM1725.7,597.6h-74.2c-35.4,0-56.9-22.9-56.9-57.6s21.5-57.6,56.9-57.6h74.2c35.4,0,56.9,22.9,56.9,57.6s-21.5,57.6-56.9,57.6Z"/>
    <path class="cls-1" d="M1485.2,586.4v51.3h41.5v-54.7c0-28.1-18.3-46.4-46.4-46.4h-133.5c-18.6,0-29.5-10.3-29.5-26.9s11-27.3,29.5-27.3h128.7c6.1,0,9.8,3.7,9.8,9.8v25.1h41.5v-28.6c0-28.1-18.3-46.4-46.4-46.4h-135c-43.5,0-70.6,26.4-70.6,67.4s27.1,66.9,70.6,66.9h130.1c6.1,0,9.8,3.7,9.8,9.8"/>
  </g>
  <path class="cls-3" d="M1135.9,442.4h-82.8c-57.6,0-99.4,42-99.4,97.6s41.7,97.6,99.4,97.6h82.8c57.6,0,99.4-41.7,99.4-97.6s-41.7-97.6-99.4-97.6ZM1135.9,597.6h-82.8c-35.4,0-56.9-22.5-56.9-57.6s21.5-57.6,56.9-57.6h82.8c35.4,0,56.9,22.5,56.9,57.6s-21.5,57.6-56.9,57.6Z"/>
  <path class="cls-3" d="M826.6,442.4h-157.7v195.3h157.7c57.6,0,99.4-41.7,99.4-97.6s-41.7-97.6-99.4-97.6ZM826.6,597.6h-116.2v-115.2h116.2c35.4,0,56.9,22.5,56.9,57.6s-21.5,57.6-56.9,57.6Z"/>
  <path class="cls-3" d="M376.9,583v54.7h41.5v-51.3c0-6.1,3.7-9.8,9.8-9.8h159.7v61h41.5v-148.9c0-28.1-18.3-46.4-46.4-46.4h-159.7c-28.1,0-46.4,18.3-46.4,46.4v23.7h41v-20.3c0-6.1,3.7-9.8,9.8-9.8h150.4c6.1,0,9.8,3.7,9.8,9.8v44.4h-164.5c-28.1,0-46.4,18.3-46.4,46.4"/>
  <path class="cls-3" d="M96.2,583v54.7h41.5v-51.3c0-6.1,3.7-9.8,9.8-9.8h130.6c43.5,0,70.6-25.9,70.6-66.9s-27.1-67.4-70.6-67.4H95v40h181.6c18.6,0,29.5,10.3,29.5,27.1s-11,27.1-29.5,27.1h-134c-28.1,0-46.4,18.3-46.4,46.4"/>
</svg>